<svg xmlns="http://www.w3.org/2000/svg" xmlns:xlink="http://www.w3.org/1999/xlink" viewBox="0 0 950.49 362.67"><defs><style>.cls-1{fill:url(#Nova_amostra_de_gradiente_1);}</style><linearGradient id="Nova_amostra_de_gradiente_1" y1="181.34" x2="950.49" y2="181.34" gradientUnits="userSpaceOnUse"><stop offset="0" stop-color="#013444"/><stop offset="1" stop-color="#0f495c"/></linearGradient></defs><g id="Camada_2" data-name="Camada 2"><g id="Camada_1-2" data-name="Camada 1"><path class="cls-1" d="M83.55,132.35A53.89,53.89,0,0,1,56,139.68a55,55,0,0,1-15.74-2.25,53.39,53.39,0,0,1-13.87-6.14,56,56,0,0,1-19.08-20A55.57,55.57,0,0,1,2.26,68.05,53.05,53.05,0,0,1,8.4,54.18a56.2,56.2,0,0,1,20-19.08A54.22,54.22,0,0,1,56,27.78a55.89,55.89,0,0,1,21.79,4.33A58.27,58.27,0,0,1,95.61,44.2L101.38,50,85.24,66.12l-5.77-5.77a32.79,32.79,0,0,0-10.56-7.06A31.09,31.09,0,0,0,56,50.61a31.77,31.77,0,0,0-9.12,1.31,31.32,31.32,0,0,0-8.39,3.59,33.11,33.11,0,0,0-11.4,11.94,32.73,32.73,0,0,0-3,25.33,34.31,34.31,0,0,0,3.71,8.39,32.27,32.27,0,0,0,11.81,11.38A31.45,31.45,0,0,0,56,116.81a33.37,33.37,0,0,0,8.31-1,34.07,34.07,0,0,0,7.49-3.1,31.82,31.82,0,0,0,11.09-9.94c1-1.46,2-4.72,2.73-4.72H71.25V76.22h38.11v7.45c0,5.45.51,10.74-1,15.74-1.35,4.84-2.15,9.56-4.86,13.86A56,56,0,0,1,83.55,132.35Zm44.12-13.52a43.45,43.45,0,0,0,15.58,15,43.88,43.88,0,0,0,43.66,0,43.66,43.66,0,0,0,15.64-15c2.09-3.35,2.84-7,4-10.94s.85-8,.85-12.28V27.22H186.15l0,8.47c.08,26.53.12,46.57.12,59.83a20,20,0,0,1-2.73,10.41,21.19,21.19,0,0,1-7.48,7.74A18.84,18.84,0,0,1,171,116a21,21,0,0,1-5.89.83,19.64,19.64,0,0,1-10.33-2.73,21,21,0,0,1-7.71-7.47c-1-1.53-2.74-3.24-3.27-5.08S142,97.68,142,95.66V27.22H120.25V95.66a43.08,43.08,0,0,0,2.15,12.22A44.51,44.51,0,0,0,127.67,118.83ZM310,141.56H286.06l-7.66-19.27H246.31l-7.66,19.27H214.72l36.67-87.45c.38-.8.74-2.38,1.22-3.44s1.17-2.66,2-4.87l7.47-18.54L270,46c8,18.82,19.95,47.43,35.86,85ZM269.85,98c-2.15-5.44-4.64-12.38-7.47-19.9-2.23,5.93-4.72,9-7.49,19.9ZM338,141.56H316.25V27.22h44.87a43.86,43.86,0,0,1,11.76,1.86,46,46,0,0,1,10.63,5A43.59,43.59,0,0,1,398,49.19a41.88,41.88,0,0,1,5.58,21.1,41,41,0,0,1-1.76,12,41.7,41.7,0,0,1-4.55,10.49,43.91,43.91,0,0,1-15.1,14.64A42.32,42.32,0,0,1,371.57,112c2.09,4.7,4.58,10.73,7.47,17.14l5.18,12.46H359l-2.15-5c-2.27-5.12-5.58-16.77-9.92-22.22H338Zm0-49h23.09c5.53,0,9.94-3.36,13.88-7.3s5.78-9.81,5.78-15.4A19.42,19.42,0,0,0,375,55.58c-3.94-3.94-8.35-6.58-13.88-6.58H338Zm106.93,49H414.25V27.22H445a57.24,57.24,0,0,1,29.48,9,56.15,56.15,0,0,1,19.09,20,56,56,0,0,1,0,55.43,56.66,56.66,0,0,1-19.06,20.14,54.07,54.07,0,0,1-14,6.64C455.58,139.86,450.33,141.56,445,141.56ZM436,114.33H445c3.11,0,6.2.8,9.17-.08s5.69-.89,8.21-2.46A32.3,32.3,0,0,0,473.74,100,31.73,31.73,0,0,0,478,83.56a33.39,33.39,0,0,0-1.32-9.27,32.68,32.68,0,0,0-3.57-8.41,34.25,34.25,0,0,0-11.94-11.8C456.24,51.2,451,49,445,49H436Zm98-87.11H512.25V141.56H534Zm64.06,112.46a54.23,54.23,0,0,1-27.72-7.36,56.09,56.09,0,0,1-19.92-19.06,53.26,53.26,0,0,1-6.16-14,55.48,55.48,0,0,1,0-31.21,52.72,52.72,0,0,1,6.14-13.87,56.12,56.12,0,0,1,20-19.08A55.69,55.69,0,0,1,613.7,30a53.05,53.05,0,0,1,13.87,6.14,56,56,0,0,1,19.08,20A54,54,0,0,1,654,83.67a54.71,54.71,0,0,1-2.26,15.74,53,53,0,0,1-6.14,13.86,56,56,0,0,1-20,19.08A53.89,53.89,0,0,1,598.09,139.68Zm-16.43-27.09a33.39,33.39,0,0,0,25.6,2.93,34.75,34.75,0,0,0,8.21-3.7A32.32,32.32,0,0,0,626.87,100a31.54,31.54,0,0,0,4.27-16.34,32.36,32.36,0,0,0-1.33-9.18,31.56,31.56,0,0,0-3.56-8.2,33.14,33.14,0,0,0-12-11.4,31.14,31.14,0,0,0-16.21-4.28A31.77,31.77,0,0,0,589,51.92a31.32,31.32,0,0,0-8.39,3.59,33.11,33.11,0,0,0-11.4,11.94,32.75,32.75,0,0,0-3,25.34,31.56,31.56,0,0,0,3.58,8.38A33.4,33.4,0,0,0,581.66,112.59Zm170.15,1.74H713.7V98H686.48V49h65.33V27.22H664.7V141.56h87.11Zm66.88-40.58A43.47,43.47,0,0,0,811,64.83a46,46,0,0,0-9.79-6.38l-9-3.75a1.89,1.89,0,0,1-.91-2.55c.34-.72.63-.87,1-1A2.44,2.44,0,0,1,793,51a2,2,0,0,1,.88.23l7.72,3.6L804.82,47l5.9-13L803.5,30.5a24,24,0,0,0-19-.94,24.71,24.71,0,0,0-14,12.86,24,24,0,0,0-.81,18.95,24.13,24.13,0,0,0,12.77,14.12l9,3.72A18.54,18.54,0,0,1,801.6,90.29a18.27,18.27,0,0,1-.59,14.88,19.19,19.19,0,0,1-11.28,10.26,18.33,18.33,0,0,1-14.92-.64l-7.19-3.33-9.88,20.44,7.26,3.52a45.65,45.65,0,0,0,18.12,4.14,40.28,40.28,0,0,0,5-.32,42.46,42.46,0,0,0,19.54-7.55,41.88,41.88,0,0,0,14-16.83,42.53,42.53,0,0,0,3.92-17.67c0-1.15-.05-2.35-.16-3.63A42,42,0,0,0,818.69,73.75ZM610.25,0H583V10.89h27.22ZM890.87,89.18a30.81,30.81,0,0,1,0,30.54,31.15,31.15,0,0,1-10.51,11.09,29.41,29.41,0,0,1-7.71,3.62,29.77,29.77,0,0,1-8.53,1.68H844.37V73.59H864.1a29.76,29.76,0,0,1,8.61,1.21,29.21,29.21,0,0,1,7.64,3.35A31,31,0,0,1,890.87,89.18Zm-8.55,15.15a17.65,17.65,0,0,0-.74-5.06,16.92,16.92,0,0,0-2-4.53A18.29,18.29,0,0,0,873,88.46a17.23,17.23,0,0,0-8.94-2.37h-7.23v37.52h7.23a18.72,18.72,0,0,0,5.06-1.23,20.72,20.72,0,0,0,4.52-2.54,17.87,17.87,0,0,0,6.29-6.51A17.45,17.45,0,0,0,882.32,104.33Zm65.9,26.14,2.27,5.64H937.3l-4.22-5.39H915.39l-4.22,5.39H898l20.21-47c.21-.43.41-1.24.67-1.81s.64-1.46,1.13-2.65l4.12-10,4.34,10C932.86,94.73,939.45,110.28,948.22,130.47Zm-19.85-13.24c-1.19-5.18-2.56-5.9-4.12-9.47-1.23,2.82-2.6,4.29-4.13,9.47ZM162.71,243.89a78.19,78.19,0,0,0-13.82-16.06,81.73,81.73,0,0,0-17.63-11.49L115,209.57a3.39,3.39,0,0,1-1.63-4.59c.61-1.29,1.12-1.56,1.71-1.78a4.14,4.14,0,0,1,1.3-.26,3.57,3.57,0,0,1,1.57.42l13.91,6.49,5.9-14.16,10.63-23.47-13-6.25a43.18,43.18,0,0,0-34.28-1.68,44.41,44.41,0,0,0-25.18,23.17A45.08,45.08,0,0,0,97.42,247l16.16,6.7a33.4,33.4,0,0,1,18.35,20c3.43,9.41,3.08,17.95-1.07,26.8A34.61,34.61,0,0,1,110.54,319c-9.28,3.42-17.78,3.07-26.88-1.15l-13-6L52.91,348.64,66,355a67.24,67.24,0,0,0,20.23,6.28,66.67,66.67,0,0,0,12.4,1.18,73.87,73.87,0,0,0,9.1-.56,76.44,76.44,0,0,0,35.21-13.6A75.55,75.55,0,0,0,168.11,318a76.55,76.55,0,0,0,7.06-31.84c0-2.07-.09-4.24-.28-6.54A75.78,75.78,0,0,0,162.71,243.89Zm186.7,100.32,7.45,16.58H313.74l-13.8-27.74H242.13l-13.79,27.74H185.22l66.06-153.66c.68-1.43,1.33-2,2.19-3.87s2.11-4.83,3.7-8.78l13.46-33.23,14.18,33C299.21,227.81,320.75,277.24,349.41,344.21Zm-64.87-44.44c-3.89-16.65-8.37-19.54-13.47-31.4-4,9.36-8.5,14.75-13.48,31.4Zm199.6-122.28c.15,47.79.23,82.81.23,106.71a34.17,34.17,0,0,1-4.93,18.21A37.51,37.51,0,0,1,466,316.09a34.24,34.24,0,0,1-9.15,4.06,38.24,38.24,0,0,1-10.62,1.43,35.67,35.67,0,0,1-18.61-5,38,38,0,0,1-13.9-13.48c-1.79-2.74-2.21-5.83-3.18-9.16s-.49-7-.49-10.62v-119H372v119c0,7.67-1.51,15.12.55,22,2.05,7.11,3.74,13.77,7.46,19.73a76.38,76.38,0,0,0,27.42,27,78.09,78.09,0,0,0,78.17.09,78.09,78.09,0,0,0,28.1-27.05c3.77-6,9.12-12.69,11.14-19.7s5.54-14.45,5.54-22.12v-119h-46.3ZM687.49,212.1a99.84,99.84,0,0,1-.07,99.35,99.94,99.94,0,0,1-34.34,35.64,94.18,94.18,0,0,1-25.21,10.64c-8.74,2.63-18.2,3.06-27.87,3.06H549.4V164.39H600c9.67,0,19.13-.29,28.13,2.41,8.73,2.44,17.22,4.52,25,9.39A100.79,100.79,0,0,1,687.49,212.1Zm-28,49.66a58.32,58.32,0,0,0-2.38-16.5,56.35,56.35,0,0,0-6.43-14.77A59.62,59.62,0,0,0,629.21,210,56.28,56.28,0,0,0,600,202.4H587.41v114H600c5.6,0,11.16,1.73,16.52.15s10.24-1.3,14.79-4.13a58.17,58.17,0,0,0,20.54-21.29A56.77,56.77,0,0,0,659.53,261.76Zm54.58,99H878.83V316.44H809.14V291.1H764.8V202.4h114v-38H714.11ZM451.39,146.41,438,158.53l12.73,14.1,13.42-12.12Z"/></g></g></svg>