<svg xmlns="http://www.w3.org/2000/svg" xmlns:xlink="http://www.w3.org/1999/xlink" viewBox="0 0 854.58 601.9"><defs><style>.cls-1{fill:url(#Gradiente_sem_nome_20);}</style><linearGradient id="Gradiente_sem_nome_20" x1="116.06" y1="544.51" x2="730.96" y2="189.5" gradientUnits="userSpaceOnUse"><stop offset="0" stop-color="#013444"/><stop offset="1" stop-color="#135d75"/></linearGradient></defs><title>Logo Guardianes de la salud_01 </title><g id="Camada_2" data-name="Camada 2"><g id="Camada_1-2" data-name="Camada 1"><path class="cls-1" d="M530.16,124.81S488.46,279.41,272.74,282c-33.06.4-75.92,2.37-128,33.18,0,0,91.51-75.51,200.64-95.18C413.26,207.74,467.37,188,530.16,124.81Zm-105,18.56C515.92,98,543.23,34,549.91,0c-6.68,34-84.48,85.84-138.73,113.15C234.05,202.31-199.06,222,185,601.9c-64.06-63-81.63-117.35-90.43-171.8C64.36,243.43,329.1,191.32,425.11,143.37ZM0,240.58A24.49,24.49,0,1,0,24.48,216.1,24.49,24.49,0,0,0,0,240.58ZM151,416a33.77,33.77,0,0,0,17.66-4.88,37.46,37.46,0,0,0,13.14-13,37.85,37.85,0,0,0,4.08-9.49,39.89,39.89,0,0,0,1.57-10.78l.06-5.8h-26.4V387.8h8.79a23.75,23.75,0,0,1-1.81,3.05,20.64,20.64,0,0,1-7.21,6.64,21.65,21.65,0,0,1-4.81,2,20.17,20.17,0,0,1-5.31.63,19.25,19.25,0,0,1-10.42-3,21.32,21.32,0,0,1-7.54-7.87,24.55,24.55,0,0,1-2.35-5.79,23.27,23.27,0,0,1-.78-6.31A22.45,22.45,0,0,1,132.59,366a22.1,22.1,0,0,1,7.43-8.09,23.42,23.42,0,0,1,10.87-2.83,21.59,21.59,0,0,1,8.58,1.53,21,21,0,0,1,6.73,4.89l3.9,4.21,10.77-11.17-3.69-4a38,38,0,0,0-11.44-8.44l-.09,0a34.85,34.85,0,0,0-14.23-3.17,34.28,34.28,0,0,0-18.16,4.88,37.88,37.88,0,0,0-17.21,22.5A40.24,40.24,0,0,0,119,396a37.77,37.77,0,0,0,12.28,13.9,33.63,33.63,0,0,0,9.07,4.37A34.15,34.15,0,0,0,150.62,416Zm46.66-14.77a29.54,29.54,0,0,0,10.05,10.57,26.77,26.77,0,0,0,14.31,4.2h.32a26.79,26.79,0,0,0,14-3.86,29.45,29.45,0,0,0,10.3-10.36,30.52,30.52,0,0,0,3.23-7.43A30.93,30.93,0,0,0,251,386l.13-47H235.77s.09,37.76,0,46.81a14.37,14.37,0,0,1-1.72,7.14,13.74,13.74,0,0,1-4.73,5.08l-.14.1a11.7,11.7,0,0,1-3.24,1.5,12.75,12.75,0,0,1-10.27-1.39,13.71,13.71,0,0,1-4.81-5l-.09-.15a13.38,13.38,0,0,1-1.46-3.48,15,15,0,0,1-.65-4l.13-46.62H193.57l-.14,46.43a34,34,0,0,0,4.26,15.84ZM269.28,416H253.36l32.1-77,30.14,77H299.68l-4.82-13.53H274.39Zm20.88-27.11-4.7-11.16L281,388.84ZM334,416H318.82v-77H349.3a31.07,31.07,0,0,1,7.12,1.21,36.44,36.44,0,0,1,7.56,3.44,28.59,28.59,0,0,1,9.37,10.05,27.74,27.74,0,0,1,3.47,13.87h0a27.17,27.17,0,0,1-1.21,7.75,27.77,27.77,0,0,1-3,6.88,28.5,28.5,0,0,1-9.95,9.48,27,27,0,0,1-6.89,2.76l8,21.6H347l-7.64-20.9H334Zm14.87-36a11.7,11.7,0,0,0,8.85-3.51,12.26,12.26,0,0,0,3.83-9.08,11.93,11.93,0,0,0-3.19-8.48,12.68,12.68,0,0,0-9.13-3.63H334v24.7Zm86.34-21.24a40.39,40.39,0,0,1-.42,38,37.87,37.87,0,0,1-12.55,13.63,34.09,34.09,0,0,1-9.14,4.17,33.63,33.63,0,0,1-9.82,1.44H381.88v-77h21.9a33.26,33.26,0,0,1,10.12,1.44,34,34,0,0,1,9.06,4.38A38,38,0,0,1,435.25,358.67ZM409,399.25a21.84,21.84,0,0,0,12.72-10.48,22.75,22.75,0,0,0,2.89-11.26,23.78,23.78,0,0,0-.8-6.35,22.16,22.16,0,0,0-9.87-13.59c-3.14-2-6.48-2.32-10.3-2.36h-6.35v44.91h5.91A18.25,18.25,0,0,0,409,399.25Zm52-60.34H445v77h16Zm18.32,77H463.4l31.56-77,30.66,77H509.7l-4.82-13.53H484.41Zm20.15-27.11c-1.3-3.26-2.8-6.94-4.49-11.16-1.43,3.34-3,7.08-4.78,11.16Zm43.62-15.42,43,42.53v-77H570.59V382.1l-42.54-43.19v77h15Zm107.07,26.7H626.39V386H607.52V355.21h42.62v-16.3H591.9v77h58.25Zm43.53-29.31a29.55,29.55,0,0,0-4.85-6.16l-.09-.08a30.1,30.1,0,0,0-6.34-4.52l-5.92-2.7a1.57,1.57,0,0,1-.63-.59,1.28,1.28,0,0,1,.07-1.07.88.88,0,0,1,.65-.48,2.7,2.7,0,0,1,1.12.22l4.93,2.52,2.25-5.8,3.91-8.94-4.72-2.48a15.08,15.08,0,0,0-6.88-1.82,16.31,16.31,0,0,0-5.71,1,16.6,16.6,0,0,0-9.25,8.86h0a17.56,17.56,0,0,0-.66,13,16.49,16.49,0,0,0,8.25,9.92l5.88,2.67a12.47,12.47,0,0,1,6.37,7.65,13.65,13.65,0,0,1-.49,10.34,12,12,0,0,1-7,6.83,11.59,11.59,0,0,1-9.73-.42l-4.9-2.49-2.44,5.07-4.18,9.16,4.73,2.52a24.15,24.15,0,0,0,7.49,2.54,21.6,21.6,0,0,0,4.38.48h.28a25.45,25.45,0,0,0,3-.18,26.76,26.76,0,0,0,12.86-5.13,28.66,28.66,0,0,0,9.22-11.58A31,31,0,0,0,698,387.05c0-.79,0-1.62-.08-2.5A30.41,30.41,0,0,0,693.67,370.81ZM750,478a78,78,0,0,1-.8,73.54A73,73,0,0,1,725,577.93,65.54,65.54,0,0,1,707.28,586a64.77,64.77,0,0,1-19,2.8H646.84v-149h42.35a64.23,64.23,0,0,1,19.56,2.79,65.81,65.81,0,0,1,17.54,8.46A73.26,73.26,0,0,1,750,478Zm-50.81,78.46a42.06,42.06,0,0,0,24.59-20.26,44.21,44.21,0,0,0,5.6-21.78,46.1,46.1,0,0,0-1.54-12.28,43.8,43.8,0,0,0-4.37-11,42.63,42.63,0,0,0-14.72-15.27c-6.08-3.85-12.53-4.49-19.92-4.57H676.59v86.84H688A35.23,35.23,0,0,0,699.22,556.49ZM463,439.18l-30.41,0v150h87.49V558.6H463Zm66,121a56.93,56.93,0,0,0,19.45,20.47,52,52,0,0,0,27.69,8.14h.63a51.81,51.81,0,0,0,27.12-7.46,57.17,57.17,0,0,0,19.94-20.06,58.88,58.88,0,0,0,6.25-14.39,59.59,59.59,0,0,0,2-16.17l.26-91.07H602.7s.18,73.09,0,90.62a27.66,27.66,0,0,1-3.33,13.82,26.77,26.77,0,0,1-9.15,9.84l-.27.18a22.5,22.5,0,0,1-6.27,2.92,23.61,23.61,0,0,1-7.23,1,23.34,23.34,0,0,1-12.65-3.68,26.5,26.5,0,0,1-9.32-9.62l-.17-.29a25.58,25.58,0,0,1-2.83-6.74,29.44,29.44,0,0,1-1.26-7.79l.26-90.24H521l-.26,89.87A65.32,65.32,0,0,0,529,560.18ZM336.72,589.61h-31l61.44-150,59.69,150h-31l-9.4-26.35H346.67ZM376,536.82c-2.54-6.34-5.46-13.5-8.75-21.71-2.78,6.49-5.88,13.77-9.29,21.71Zm-73.4-35.27a57.4,57.4,0,0,0-9.41-12l-.16-.16a57.94,57.94,0,0,0-12.32-8.76l-11.48-5.24a3,3,0,0,1-1.23-1.14,2.57,2.57,0,0,1,.14-2.09,1.7,1.7,0,0,1,1.26-.93,5.26,5.26,0,0,1,2.17.43l9.57,4.89,4.37-11.26L293.05,448l-9.16-4.82a29.08,29.08,0,0,0-13.36-3.52,31,31,0,0,0-11.08,2,32.15,32.15,0,0,0-18,17.2h0a34.15,34.15,0,0,0-1.29,25.33,32,32,0,0,0,16,19.24l11.39,5.2c6.15,3.17,10.09,7.89,12.38,14.83a26.53,26.53,0,0,1-.95,20.07c-3.05,6.65-7.08,10.83-13.58,13.27A22.55,22.55,0,0,1,246.6,556l-9.51-4.84L232.36,561l-8.13,17.77,9.2,4.89A46.81,46.81,0,0,0,248,588.56a43.71,43.71,0,0,0,8.5.93H257a49.73,49.73,0,0,0,5.9-.35,52,52,0,0,0,25-10,55.94,55.94,0,0,0,17.9-22.48,60.35,60.35,0,0,0,5.17-23.63q0-2.28-.15-4.86A59.07,59.07,0,0,0,302.55,501.55ZM806.21,376.26h-8V416h22.91v-8H806.21Zm24.51,39.68h-8.19l16.26-39.68,15.79,39.68h-8.2l-2.48-7H833.36Zm10.38-14c-.67-1.68-1.44-3.57-2.31-5.74L836.33,402Zm-63.25,5.95H765.56V400.6H755.8V384.69h22.05v-8.43H747.72v39.85h30.14Zm-39.34-21.48a20.75,20.75,0,0,1-.22,19.6,19.41,19.41,0,0,1-6.46,7,18.24,18.24,0,0,1-9.77,2.89H711V376.26H722.3a17.1,17.1,0,0,1,5.21.74,17.4,17.4,0,0,1,4.67,2.26A19.5,19.5,0,0,1,738.51,386.44ZM725,407.35a11.25,11.25,0,0,0,2.72-1.27,11.07,11.07,0,0,0,3.83-4.13,11.68,11.68,0,0,0,1.49-5.81,12.07,12.07,0,0,0-.41-3.27,11.87,11.87,0,0,0-1.16-2.93,11.4,11.4,0,0,0-3.92-4.07,9.59,9.59,0,0,0-5.31-1.22h-3.27V407.8h3A9.67,9.67,0,0,0,725,407.35Z"/></g></g></svg>