<svg xmlns="http://www.w3.org/2000/svg" xmlns:xlink="http://www.w3.org/1999/xlink" viewBox="0 0 740.11 250.69"><defs><style>.cls-1{fill:url(#Gradiente_sem_nome_20);}</style><linearGradient id="Gradiente_sem_nome_20" x1="109.97" y1="240.17" x2="658.55" y2="-76.56" gradientUnits="userSpaceOnUse"><stop offset="0" stop-color="#013444"/><stop offset="1" stop-color="#135d75"/></linearGradient></defs><title>Logo Guardianes de la salud_02 </title><g id="Camada_2" data-name="Camada 2"><g id="Camada_1-2" data-name="Camada 1"><path class="cls-1" d="M36.55,77a33.8,33.8,0,0,0,17.67-4.88,37.38,37.38,0,0,0,13.13-13,37.07,37.07,0,0,0,4.08-9.48A39.57,39.57,0,0,0,73,38.88l.06-5.81H46.67V48.89h8.79a23.75,23.75,0,0,1-1.81,3,20.65,20.65,0,0,1-7.22,6.63,20.84,20.84,0,0,1-4.81,2,20.07,20.07,0,0,1-5.31.63,19.25,19.25,0,0,1-10.42-3,21.52,21.52,0,0,1-7.53-7.87A24.63,24.63,0,0,1,16,44.54a22.77,22.77,0,0,1-.78-6.3A22.59,22.59,0,0,1,18.11,27.1,22.17,22.17,0,0,1,25.55,19a23.4,23.4,0,0,1,10.87-2.84A21.54,21.54,0,0,1,45,17.72a21,21,0,0,1,6.74,4.89l3.9,4.21L66.4,15.65l-3.7-4A37.81,37.81,0,0,0,51.27,3.21l-.09,0A34.94,34.94,0,0,0,36.94,0,34.27,34.27,0,0,0,18.79,4.88,37.88,37.88,0,0,0,1.58,27.38,39.26,39.26,0,0,0,0,38.07a38.89,38.89,0,0,0,4.56,19A37.76,37.76,0,0,0,16.84,71a34,34,0,0,0,9.06,4.37A34.27,34.27,0,0,0,36.15,77ZM83.22,62.27a29.54,29.54,0,0,0,10,10.57,26.94,26.94,0,0,0,14.3,4.2h.33a26.72,26.72,0,0,0,14-3.85,29.54,29.54,0,0,0,10.3-10.36A29.2,29.2,0,0,0,136.49,47l.13-47H121.3s.09,37.75,0,46.81A14.27,14.27,0,0,1,119.57,54,13.79,13.79,0,0,1,114.85,59l-.14.09a11.44,11.44,0,0,1-3.24,1.51,12.29,12.29,0,0,1-3.74.51,12.09,12.09,0,0,1-6.53-1.9,13.71,13.71,0,0,1-4.81-5l-.09-.15a13.38,13.38,0,0,1-1.46-3.48,15.08,15.08,0,0,1-.65-4L94.32,0H79.09L79,46.42a30.72,30.72,0,0,0,1.19,8.34A30.3,30.3,0,0,0,83.22,62.27ZM154.81,77H138.89L171,0l30.15,77H185.21l-4.82-13.53H159.92Zm20.88-27.12L171,38.77,166.5,49.92ZM219.56,77H204.35V0h30.48a31.16,31.16,0,0,1,7.11,1.2,36.31,36.31,0,0,1,7.57,3.45,28.47,28.47,0,0,1,9.36,10,27.71,27.71,0,0,1,3.47,13.86h0a27.17,27.17,0,0,1-1.2,7.76,27.77,27.77,0,0,1-3,6.88,28.77,28.77,0,0,1-10,9.48,27.75,27.75,0,0,1-6.89,2.76l8,21.6H232.54l-7.65-20.9h-5.33Zm14.87-36a11.72,11.72,0,0,0,8.85-3.51,12.24,12.24,0,0,0,3.84-9.09,11.86,11.86,0,0,0-3.2-8.47,12.68,12.68,0,0,0-9.13-3.63H219.56V41Zm86.34-21.24a38.92,38.92,0,0,1,4.56,19,39.19,39.19,0,0,1-5,19,37.71,37.71,0,0,1-12.55,13.63,35.67,35.67,0,0,1-19,5.62H267.41V0h21.9a33.26,33.26,0,0,1,10.12,1.44,34,34,0,0,1,9.06,4.38A37.81,37.81,0,0,1,320.77,19.76ZM294.5,60.34a21.72,21.72,0,0,0,5.28-2.46,21.47,21.47,0,0,0,7.43-8,22.9,22.9,0,0,0,2.9-11.27,23.88,23.88,0,0,0-.8-6.35,22.77,22.77,0,0,0-2.26-5.69,22,22,0,0,0-7.61-7.89c-3.15-2-6.48-2.32-10.3-2.36h-6.35V61.21h5.91A18.29,18.29,0,0,0,294.5,60.34ZM346.5,0h-16V77h16Zm18.33,77H348.92L380.48,0l30.67,77H395.23l-4.82-13.53H369.94ZM385,49.92l-4.5-11.15c-1.43,3.34-3,7.07-4.77,11.15ZM428.6,34.51l43,42.53V0H456.11V43.19L413.58,0V77h15Zm107.07,26.7H511.92V47H493.05V16.3h42.62V0H477.43V77h58.25ZM579.19,31.9a29.87,29.87,0,0,0-4.85-6.17l-.08-.08a29.87,29.87,0,0,0-6.35-4.51L562,18.44a1.61,1.61,0,0,1-.64-.59,1.35,1.35,0,0,1,.08-1.08.86.86,0,0,1,.65-.47,2.65,2.65,0,0,1,1.11.22L568.13,19l2.26-5.8L574.3,4.3l-4.72-2.49A15.23,15.23,0,0,0,562.69,0,16.07,16.07,0,0,0,557,1a16.57,16.57,0,0,0-9.25,8.86h0a17.57,17.57,0,0,0-.67,13.05,16.51,16.51,0,0,0,8.26,9.92l5.87,2.67a12.43,12.43,0,0,1,6.38,7.65,13.67,13.67,0,0,1-.49,10.33,12,12,0,0,1-7,6.84,11.62,11.62,0,0,1-9.73-.42l-4.9-2.49L543,62.5l-4.18,9.15,4.73,2.52a24,24,0,0,0,7.48,2.55,23.21,23.21,0,0,0,4.38.48h.29a25.16,25.16,0,0,0,3-.18,26.85,26.85,0,0,0,12.87-5.13,28.81,28.81,0,0,0,9.22-11.58,31,31,0,0,0,2.66-12.18c0-.78,0-1.61-.07-2.5A30.5,30.5,0,0,0,579.19,31.9Zm56.37,107.21a78,78,0,0,1-.81,73.55A72.87,72.87,0,0,1,610.49,239a68.77,68.77,0,0,1-36.65,10.87H532.37v-149h42.34a64.29,64.29,0,0,1,19.57,2.78,65.63,65.63,0,0,1,17.53,8.47A73.33,73.33,0,0,1,635.56,139.11Zm-50.81,78.47a42.18,42.18,0,0,0,24.59-20.26,44.13,44.13,0,0,0,5.59-21.78,45.3,45.3,0,0,0-1.54-12.28,43.28,43.28,0,0,0-4.37-11A42.52,42.52,0,0,0,594.3,137c-6.07-3.86-12.53-4.49-19.92-4.57H562.12v86.84h11.42A35.23,35.23,0,0,0,584.75,217.58ZM348.5,100.26l-30.41,0v150h87.5V219.68H348.5Zm66,121A57,57,0,0,0,434,241.74a52,52,0,0,0,27.7,8.13h.63a51.85,51.85,0,0,0,27.12-7.47,57.06,57.06,0,0,0,19.94-20,56.46,56.46,0,0,0,8.29-30.56l.26-91.08H488.23s.18,73.09,0,90.63a27.57,27.57,0,0,1-3.34,13.82,26.74,26.74,0,0,1-9.14,9.84l-.28.18a22.2,22.2,0,0,1-6.27,2.91,24.62,24.62,0,0,1-19.87-2.69,26.45,26.45,0,0,1-9.32-9.63l-.17-.28a25.45,25.45,0,0,1-2.83-6.75,28.51,28.51,0,0,1-1.26-7.78l.25-90.25H406.53l-.26,89.88a59,59,0,0,0,2.31,16.13A58.19,58.19,0,0,0,414.52,221.27ZM222.25,250.69h-31l61.43-150,59.7,150h-31L272,224.35H232.19Zm39.23-52.78c-2.54-6.35-5.46-13.51-8.76-21.71-2.78,6.49-5.87,13.76-9.29,21.71Zm-73.4-35.27a58.06,58.06,0,0,0-9.41-12l-.17-.15a57.88,57.88,0,0,0-12.31-8.76l-11.49-5.24a3.13,3.13,0,0,1-1.23-1.15,2.61,2.61,0,0,1,.14-2.09,1.76,1.76,0,0,1,1.27-.93,5.34,5.34,0,0,1,2.16.43l9.57,4.89L171,126.42l7.59-17.36-9.16-4.82a29.36,29.36,0,0,0-13.37-3.52,31.15,31.15,0,0,0-11.07,2,32.14,32.14,0,0,0-18,17.19h0a34.07,34.07,0,0,0-1.29,25.32,32,32,0,0,0,16,19.25l11.4,5.19c6.15,3.17,10.08,7.89,12.38,14.84a26.54,26.54,0,0,1-1,20.07c-3,6.65-7.08,10.83-13.57,13.27a22.52,22.52,0,0,1-18.88-.82l-9.52-4.83L117.88,222l-8.12,17.77L119,244.7a46.86,46.86,0,0,0,14.53,5,45.23,45.23,0,0,0,8.5.93h.55a47.53,47.53,0,0,0,5.89-.36,52.2,52.2,0,0,0,25-9.95,55.84,55.84,0,0,0,17.89-22.48,60.23,60.23,0,0,0,5.18-23.64c0-1.52,0-3.13-.15-4.85A59.07,59.07,0,0,0,188.08,162.64ZM691.73,37.35h-8V77h22.91V69H691.73ZM716.25,77h-8.19l16.25-39.68L740.11,77h-8.2l-2.48-7H718.88Zm10.38-14c-.67-1.68-1.44-3.57-2.32-5.74l-2.45,5.74Zm-63.25,6H651.09V61.68h-9.76V45.78h22V37.35H633.25V77.2h30.13ZM624,47.53a20.81,20.81,0,0,1-.22,19.59,19.36,19.36,0,0,1-6.46,7,17.86,17.86,0,0,1-4.72,2.15,17.43,17.43,0,0,1-5,.74H596.54V37.35h11.28a17.21,17.21,0,0,1,5.22.74,17.82,17.82,0,0,1,4.67,2.25A19.61,19.61,0,0,1,624,47.53ZM610.5,68.43a10.85,10.85,0,0,0,2.72-1.26A11.07,11.07,0,0,0,617.05,63a11.78,11.78,0,0,0,1.49-5.81,12.37,12.37,0,0,0-.41-3.27A11.47,11.47,0,0,0,613,47a9.51,9.51,0,0,0-5.31-1.22h-3.26V68.88h3A9.11,9.11,0,0,0,610.5,68.43Z"/></g></g></svg>