<?xml version="1.0" encoding="iso-8859-1"?>
<!-- Generator: Adobe Illustrator 19.1.0, SVG Export Plug-In . SVG Version: 6.00 Build 0)  -->
<svg version="1.1" id="Capa_1" xmlns="http://www.w3.org/2000/svg" xmlns:xlink="http://www.w3.org/1999/xlink" x="0px" y="0px"
	 viewBox="0 0 134.565 134.565" style="enable-background:new 0 0 134.565 134.565;" xml:space="preserve">
<g>
	<path d="M67.283,0c-36.96,0-67.2,30.277-67.2,67.283s30.24,67.283,67.2,67.283s67.2-30.277,67.2-67.283S104.243,0,67.283,0z
		 M67.283,126.155c-32.34,0-58.8-26.493-58.8-58.872S34.943,8.41,67.283,8.41s58.8,26.493,58.8,58.872
		S99.623,126.155,67.283,126.155z"/>
	<path d="M93.743,47.518l-34.86,34.903L41.243,64.76c-1.68-1.682-4.2-1.682-5.88,0c-1.68,1.682-1.68,4.205,0,5.887l20.58,20.605
		c0.84,0.841,1.68,1.262,2.94,1.262c1.26,0,2.1-0.421,2.94-1.262l37.8-37.846c1.68-1.682,1.68-4.205,0-5.887
		C97.943,45.836,95.423,45.836,93.743,47.518z"/>
</g>
<g>
</g>
<g>
</g>
<g>
</g>
<g>
</g>
<g>
</g>
<g>
</g>
<g>
</g>
<g>
</g>
<g>
</g>
<g>
</g>
<g>
</g>
<g>
</g>
<g>
</g>
<g>
</g>
<g>
</g>
</svg>
