<?xml version="1.0" encoding="utf-8"?>
<svg id="master-artboard" viewBox="0 0 1400 980" version="1.1" xmlns="http://www.w3.org/2000/svg" x="0px" y="0px" style="enable-background:new 0 0 1400 980;" width="1400px" height="980px" xmlns:xlink="http://www.w3.org/1999/xlink"><defs><style id="ee-google-fonts">@import url(https://fonts.googleapis.com/css?family=Fjalla+One:400|Roboto:100,100italic,300,300italic,400,400italic,500,500italic,700,700italic,900,900italic);</style><linearGradient id="e7432531-051f-4229-a0a7-c46f90e1c00c" x1="148.90523" y1="794.69949" x2="148.90523" y2="65.63373" gradientUnits="userSpaceOnUse"><stop offset="0" stop-color="gray" stop-opacity="0.25"/><stop offset="0.53514" stop-color="gray" stop-opacity="0.12"/><stop offset="1" stop-color="gray" stop-opacity="0.1"/></linearGradient><linearGradient id="b47202c6-c1c9-40b8-92af-db2c55bf8bd1" x1="446.71569" y1="794.69949" x2="446.71569" y2="65.63373" xlink:href="#e7432531-051f-4229-a0a7-c46f90e1c00c"/><linearGradient id="adbec034-83c8-4647-bb3b-2a01b75562b1" x1="741.60573" y1="794.69949" x2="741.60573" y2="65.63373" xlink:href="#e7432531-051f-4229-a0a7-c46f90e1c00c"/><linearGradient id="eb6a4cdb-41e1-4fe3-bddb-eac7508f621d" x1="889.89998" y1="291.93722" x2="889.89998" y2="71.20644" gradientUnits="userSpaceOnUse"><stop offset="0" stop-color="#b3b3b3" stop-opacity="0.25"/><stop offset="0.53514" stop-color="#b3b3b3" stop-opacity="0.1"/><stop offset="1" stop-color="#b3b3b3" stop-opacity="0.05"/></linearGradient><linearGradient id="f829b744-a02a-4a2c-9fed-3f5da7d4212f" x1="733.69525" y1="105.86015" x2="733.69525" y2="63.03179" gradientUnits="userSpaceOnUse"><stop offset="0" stop-opacity="0.12"/><stop offset="0.55135" stop-opacity="0.09"/><stop offset="1" stop-opacity="0.02"/></linearGradient><linearGradient id="ae45afba-725c-45f7-9e29-49ac6fec796e" x1="311.1462" y1="736.28097" x2="311.1462" y2="513.98983" xlink:href="#eb6a4cdb-41e1-4fe3-bddb-eac7508f621d"/><linearGradient id="f4c06303-04ff-41d3-ad1f-a3b84d982f8e" x1="154.94147" y1="549.2607" x2="154.94147" y2="506.12958" gradientUnits="userSpaceOnUse"><stop offset="0.00541" stop-opacity="0.12"/><stop offset="0.55135" stop-opacity="0.09"/><stop offset="1" stop-opacity="0.05"/></linearGradient></defs>











































<g transform="matrix(0.9999999999999999, 0, 0, 0.9999999999999999, 1.8189894035458565e-12, 4.547473508864641e-13)">
		<path class="st13" d="M448.4,599.9" style="fill: rgb(223, 243, 251);"/>
	</g>





















































<g transform="matrix(0.5338003039360045, 0, 0, 0.5338003039360045, 450.54867013839396, 115.52500531907103)"><title>Map light</title><path d="M 297.80999755859375 766.7219848632812 L 0 794.698974609375 L 0 93.61100006103516 L 297.80999755859375 65.63400268554688 L 297.80999755859375 766.7219848632812 Z" fill="url(#e7432531-051f-4229-a0a7-c46f90e1c00c)"/><path d="M 297.80999755859375 766.7219848632812 L 595.6209716796875 794.698974609375 L 595.6209716796875 93.61100006103516 L 297.80999755859375 65.63400268554688 L 297.80999755859375 766.7219848632812 Z" fill="url(#b47202c6-c1c9-40b8-92af-db2c55bf8bd1)"/><path d="M 887.5910034179688 766.7219848632812 L 595.6209716796875 794.698974609375 L 595.6209716796875 93.61100006103516 L 887.5910034179688 65.63400268554688 L 887.5910034179688 766.7219848632812 Z" fill="url(#adbec034-83c8-4647-bb3b-2a01b75562b1)"/><path d="M 298.864990234375 747.260986328125 L 9.48799991607666 774.1430053710938 L 9.48799991607666 100.51100158691406 L 298.864990234375 73.62899780273438 L 298.864990234375 747.260986328125 Z" fill="#f5f5f5"/><path d="M 298.864990234375 747.260986328125 L 588.2420043945312 774.1430053710938 L 588.2420043945312 100.51100158691406 L 298.864990234375 73.62899780273438 L 298.864990234375 747.260986328125 Z" fill="#fff"/><path d="M 877.6179809570312 747.260986328125 L 588.2420043945312 774.1430053710938 L 588.2420043945312 100.51100158691406 L 877.6179809570312 73.62899780273438 L 877.6179809570312 747.260986328125 Z" fill="#f5f5f5"/><path d="M 298.864990234375 135.49400329589844 L 79.06500244140625 143.20599365234375 L 79.06500244140625 173.25100708007812 L 79.06500244140625 214.36399841308594 L 79.06500244140625 244.40899658203125 L 265.6570129394531 244.40899658203125 L 265.6570129394531 207.81700134277344 L 298.864990234375 206.65199279785156 L 349.46600341796875 222.27099609375 L 349.46600341796875 151.11300659179688 L 298.864990234375 135.49400329589844 Z" fill="#348eac" opacity="0.3"/><path d="M 298.864990234375 701.4030151367188 L 52.18299865722656 725.1229858398438 L 52.18299865722656 634.989013671875 L 298.864990234375 611.2689819335938 L 298.864990234375 701.4030151367188 Z" fill="#348eac" opacity="0.3"/><path d="M 271.864990234375 422.40301513671875 L 25.183000564575195 446.12298583984375 L 25.183000564575195 355.989013671875 L 271.864990234375 332.2690124511719 L 271.864990234375 422.40301513671875 Z" fill="#348eac" opacity="0.3"/><path d="M 444.34375 631.826172 H 551.871773 V 714.053482 H 444.34375 V 631.826172 Z" fill="#348eac" opacity="0.3"/><path d="M 409.34375 438.826172 H 516.871773 V 521.053482 H 409.34375 V 438.826172 Z" fill="#348eac" opacity="0.3"/><path d="M 453.34375 181.826157 H 560.871773 V 264.053467 H 453.34375 V 181.826157 Z" fill="#348eac" opacity="0.3"/><path d="M 836.5050048828125 676.1019897460938 L 668.8880004882812 690.333984375 L 668.8880004882812 581.2249755859375 L 836.5050048828125 566.9929809570312 L 836.5050048828125 676.1019897460938 Z" fill="#348eac" opacity="0.3"/><path d="M 816.5050048828125 292.10198974609375 L 648.8880004882812 306.3340148925781 L 648.8880004882812 197.22500610351562 L 816.5050048828125 182.9929962158203 L 816.5050048828125 292.10198974609375 Z" fill="#348eac" opacity="0.3"/><path d="M958.28172,142.038c0,39.11917-68.38174,149.89926-68.38174,149.89926S821.51824,181.15713,821.51824,142.038,852.13379,71.20644,889.9,71.20644,958.28172,102.91879,958.28172,142.038Z" transform="translate(-156.20473 -52.65025)" fill="url(#eb6a4cdb-41e1-4fe3-bddb-eac7508f621d)"/><path d="M 754.368801 84.445969 A 20.67355 21.414181 0 0 1 733.695251 105.860149 A 20.67355 21.414181 0 0 1 713.021702 84.445969 A 20.67355 21.414181 0 0 1 733.695251 63.031788 A 20.67355 21.414181 0 0 1 754.368801 84.445969 Z" fill="url(#f829b744-a02a-4a2c-9fed-3f5da7d4212f)"/><path d="M953.17715,142.165c0,34.947-63.27717,133.91214-63.27717,133.91214S826.62281,177.112,826.62281,142.165a63.27717,63.27717,0,1,1,126.55434,0Z" transform="translate(-156.20473 -52.65025)" fill="#348eac"/><path d="M 752.825562 85.100029 A 19.13031 19.13031 0 0 1 733.695251 104.230339 A 19.13031 19.13031 0 0 1 714.564941 85.100029 A 19.13031 19.13031 0 0 1 733.695251 65.969719 A 19.13031 19.13031 0 0 1 752.825562 85.100029 Z" fill="#fff"/><path d="M381.55767,585.32206c0,39.39571-70.41147,150.95891-70.41147,150.95891s-70.41146-111.5632-70.41146-150.95891,31.52429-71.33223,70.41146-71.33223S381.55767,545.92636,381.55767,585.32206Z" transform="translate(-156.20473 -52.65025)" fill="url(#ae45afba-725c-45f7-9e29-49ac6fec796e)"/><path d="M 176.228657 527.695129 A 21.287189 21.565559 0 0 1 154.941467 549.260689 A 21.287189 21.565559 0 0 1 133.654278 527.695129 A 21.287189 21.565559 0 0 1 154.941467 506.12957 A 21.287189 21.565559 0 0 1 176.228657 527.695129 Z" fill="url(#f4c06303-04ff-41d3-ad1f-a3b84d982f8e)"/><path d="M374.42337,584.92742c0,34.947-63.27717,133.91214-63.27717,133.91214S247.869,619.87443,247.869,584.92742a63.27717,63.27717,0,1,1,126.55433,0Z" transform="translate(-156.20473 -52.65025)" fill="#348eac"/><path d="M 174.071777 527.862488 A 19.13031 19.13031 0 0 1 154.941467 546.992798 A 19.13031 19.13031 0 0 1 135.811157 527.862488 A 19.13031 19.13031 0 0 1 154.941467 508.732178 A 19.13031 19.13031 0 0 1 174.071777 527.862488 Z" fill="#fff"/><path d="M717.42337,589.92742c0,34.947-63.27717,133.91214-63.27717,133.91214S590.869,624.87443,590.869,589.92742a63.27717,63.27717,0,1,1,126.55433,0Z" transform="translate(-156.20473 -52.65025)" fill="#348eac"/><path d="M 517.071777 532.862488 A 19.13031 19.13031 0 0 1 497.941467 551.992798 A 19.13031 19.13031 0 0 1 478.811157 532.862488 A 19.13031 19.13031 0 0 1 497.941467 513.732178 A 19.13031 19.13031 0 0 1 517.071777 532.862488 Z" fill="#fff"/><path d="M965.42337,549.92742c0,34.947-63.27717,133.91214-63.27717,133.91214S838.869,584.87443,838.869,549.92742a63.27716,63.27716,0,1,1,126.55433,0Z" transform="translate(-156.20473 -52.65025)" fill="#348eac"/><path d="M 765.071777 492.862488 A 19.13031 19.13031 0 0 1 745.941467 511.992798 A 19.13031 19.13031 0 0 1 726.811157 492.862488 A 19.13031 19.13031 0 0 1 745.941467 473.732178 A 19.13031 19.13031 0 0 1 765.071777 492.862488 Z" fill="#fff"/><path d="M406.42337,115.92742c0,34.947-63.27717,133.91214-63.27717,133.91214S279.869,150.87443,279.869,115.92742a63.27717,63.27717,0,1,1,126.55433,0Z" transform="translate(-156.20473 -52.65025)" fill="#348eac"/><path d="M 206.071777 58.86248 A 19.13031 19.13031 0 0 1 186.941467 77.99279 A 19.13031 19.13031 0 0 1 167.811157 58.86248 A 19.13031 19.13031 0 0 1 186.941467 39.73217 A 19.13031 19.13031 0 0 1 206.071777 58.86248 Z" fill="#fff"/></g><g transform="matrix(1.2205348014831543, 0, 0, 1.2205348014831543, 157.473390902554, -45.85620357756588)"><path d="M 657.779175 729.31311 A 101 10 0 0 1 556.779175 739.31311 A 101 10 0 0 1 455.779175 729.31311 A 101 10 0 0 1 556.779175 719.31311 A 101 10 0 0 1 657.779175 729.31311 Z" fill="#e6e6e6" transform="matrix(0.7999711036682129, 0, 0, 0.7999711036682129, 185.9671727449943, 129.2351007689951)"/><path d="M 585.890442 219.322296 A 28.47229 28.47229 0 0 1 557.418152 247.794586 A 28.47229 28.47229 0 0 1 528.945862 219.322296 A 28.47229 28.47229 0 0 1 557.418152 190.850006 A 28.47229 28.47229 0 0 1 585.890442 219.322296 Z" fill="#ffb8b8" transform="matrix(0.7999711036682129, 0, 0, 0.7999711036682129, 185.9671727449943, 129.2351007689951)"/><path d="M857.7704,351.22368l-48.47985-.76952c4.17-11.49016,5.97713-22.24867,3.07808-31.55038l36.937-3.8476Q841.81946,333.13994,857.7704,351.22368Z" transform="matrix(0.7999711036682129, 0, 0, 0.7999711036682129, -30.913343307251807, 64.96265509028416)" fill="#ffb8b8"/><path d="M756.96309,542.065l8.05045,21.46788a13.00007,13.00007,0,0,1-10.59863,17.4691h0a13.00007,13.00007,0,0,1-14.56418-13.4041l.95244-24.76336,6.92569-126.971,28.47229,8.46473Z" transform="matrix(0.7999711036682129, 0, 0, 0.7999711036682129, -30.913343307251807, 64.96265509028416)" fill="#ffb8b8"/><path d="M900.09408,542.065l-8.05046,21.46788a13.00007,13.00007,0,0,0,10.59863,17.4691h0a13.00007,13.00007,0,0,0,14.56418-13.4041l-.95243-24.76336-6.9257-126.971L880.856,424.32822Z" transform="matrix(0.7999711036682129, 0, 0, 0.7999711036682129, -30.913343307251807, 64.96265509028416)" fill="#ffb8b8"/><path d="M 598.9719848632812 700.2730102539062 L 575.8870239257812 697.9650268554688 L 555.1099853515625 496.3500061035156 L 525.8679809570312 701.81201171875 L 504.3210144042969 701.0430297851562 L 498.93499755859375 475.572998046875 L 602.0499877929688 475.572998046875 L 598.9719848632812 700.2730102539062 Z" fill="#2f2e41" transform="matrix(0.7999711036682129, 0, 0, 0.7999711036682129, 185.9671727449943, 129.2351007689951)"/><path d="M794.66964,288.89245s7.69521,16.92947,13.08186,17.699,14.62091,9.23426,13.08187,13.08186-.76952,15.39043,14.6209,13.85139,14.62091-3.07808,14.62091-3.07808,24.62469-46.94081-.76952-59.25316S801.59533,268.11537,794.66964,288.89245Z" transform="matrix(0.7999711036682129, 0, 0, 0.7999711036682129, -30.913343307251807, 64.96265509028416)" fill="#2f2e41"/><path d="M774.25439,770.37232l.92491,19.42316s-14.0971,21.98679,3.47624,21.98679c.17573,0-.17352.00055,0,0,12.709-.04024,24.19541,5.67939,22.693-6.94053l-2.12155-17.821-3.69965-19.42317Z" transform="matrix(0.7999711036682129, 0, 0, 0.7999711036682129, -30.913343307251807, 64.96265509028416)" fill="#2f2e41"/><path d="M869.89026,770.37232l-.92491,19.42316s14.0971,21.98679-3.47624,21.98679c-.17573,0,.17352.00055,0,0-12.709-.04024-24.19541,5.67939-22.693-6.94053l2.12155-17.821,3.69965-19.42317Z" transform="matrix(0.7999711036682129, 0, 0, 0.7999711036682129, -30.913343307251807, 64.96265509028416)" fill="#2f2e41"/><path d="M881.62556,565.15065,766.96687,559.764c21.38371-68.62071,21.5419-124.76917-5.38665-176.47163a27.68309,27.68309,0,0,1,16.731-25.4245l33.2879-14.3394,42.3236,2.30856,27.92713,15.3599a33.24452,33.24452,0,0,1,17.17994,30.8287C874.57982,450.39156,873.18337,507.94459,881.62556,565.15065Z" transform="matrix(0.7999711036682129, 0, 0, 0.7999711036682129, -30.913343307251807, 64.96265509028416)" fill="#3f3d56"/><path d="M796.20868,431.25391l-63.87028-10.7733,10.52292-26.12587A68.84712,68.84712,0,0,1,784.536,354.90266l6.28606-2.13993Z" transform="matrix(0.7999711036682129, 0, 0, 0.7999711036682129, -30.913343307251807, 64.96265509028416)" fill="#3f3d56"/><path d="M860.84848,431.25391l63.87028-10.7733-10.52292-26.12587a68.84712,68.84712,0,0,0-41.67465-39.45208l-6.28606-2.13993Z" transform="matrix(0.7999711036682129, 0, 0, 0.7999711036682129, -30.913343307251807, 64.96265509028416)" fill="#3f3d56"/></g></svg>